<svg xmlns="http://www.w3.org/2000/svg" viewBox="0 0 1819.53 643.52"><defs><style>.cls-1{fill:#00b7ff;}.cls-2{font-size:200px;font-family:SegoeUI-Semibold, Segoe UI;font-weight:700;}.cls-2,.cls-3{fill:#00b1ff;}.cls-3{font-size:50px;font-family:SegoeUI-Light, Segoe UI;}.cls-4{letter-spacing:-0.02em;}.cls-5{letter-spacing:-0.09em;}</style></defs><title>oops</title><g id="图层_2" data-name="图层 2"><g id="Posts"><g id="Tag"><polygon class="cls-1" points="120.62 59.53 125.65 39.22 72.68 39.6 67.8 59.32 120.62 59.53"/><polygon class="cls-1" points="100.82 139.45 105.77 119.47 52.88 119.53 47.87 139.75 100.82 139.45"/><polygon class="cls-1" points="90.89 179.53 95.86 159.46 43.01 159.37 37.99 179.62 90.89 179.53"/><polygon class="cls-1" points="80.99 219.5 85.91 199.66 33.1 199.4 28.15 219.35 80.99 219.5"/><polygon class="cls-1" points="61.4 298.6 66.1 279.62 13.22 279.62 8.54 298.54 61.4 298.6"/><polygon class="cls-1" points="3.58 318.55 0 333 52.88 333 56.47 318.49 3.58 318.55"/><polygon class="cls-1" points="71.06 259.57 76.06 239.42 23.14 239.59 18.17 259.66 71.06 259.57"/><polygon class="cls-1" points="110.73 99.43 115.55 80 62.67 80 57.85 99.46 110.73 99.43"/><polygon class="cls-1" points="130.53 19.5 135.25 0.48 82.37 0.48 77.59 19.77 130.53 19.5"/><polygon class="cls-1" points="240.78 19.77 242.92 0 215.79 0 217.93 19.77 240.78 19.77"/><polygon class="cls-1" points="284.8 52.61 280.12 39.22 250.37 39.22 238.15 44.12 238.68 39.22 220.03 39.22 220.56 44.12 208.35 39.22 178.53 39.22 173.76 52.61 214.75 59.62 243.96 59.62 284.8 52.61"/><polygon class="cls-1" points="197.98 79.52 185.99 93.75 194.32 99.46 212.36 99.46 223.85 79.29 197.98 79.52"/><polygon class="cls-1" points="235.28 80 246.35 99.46 264.31 99.46 272.58 93.75 260.62 79.48 235.28 80"/><polygon class="cls-1" points="1634 385 1645.39 405.02 1670.43 404.92 1673.58 402.75 1658.66 384.95 1634 385"/><polygon class="cls-1" points="1642.09 325.91 1643.92 309 1616.8 309 1618.62 325.91 1642.09 325.91"/><polygon class="cls-1" points="1680.33 345.98 1656.8 346.05 1639.15 353.12 1639.91 346.06 1620.79 346 1621.56 353.12 1603.8 346 1580.29 346.09 1574.76 361.61 1594.79 365.04 1666.08 365 1685.8 361.61 1680.33 345.98"/><polygon class="cls-1" points="1601.9 385.05 1586.99 402.75 1590.31 405.02 1615.34 404.99 1626.73 384.98 1601.9 385.05"/><polygon class="cls-1" points="1815.81 326 1819.53 311 1766.65 311 1762.93 326.01 1815.81 326"/><polygon class="cls-1" points="1806.17 364.94 1810.86 345.98 1757.97 346.07 1753.26 365.06 1806.17 364.94"/><polygon class="cls-1" points="1796.23 405.04 1801.2 384.97 1748.32 385 1743.35 405.05 1796.23 405.04"/><polygon class="cls-1" points="1786.44 444.59 1791.27 425.08 1738.42 424.99 1733.56 444.57 1786.44 444.59"/><polygon class="cls-1" points="1776.56 484.46 1781.51 464.48 1728.63 464.51 1723.67 484.51 1776.56 484.46"/><polygon class="cls-1" points="1766.63 524.56 1771.61 504.46 1718.72 504.49 1713.75 524.56 1766.63 524.56"/><polygon class="cls-1" points="1756.72 564.54 1761.71 544.42 1708.81 544.51 1703.86 564.49 1756.72 564.54"/><polygon class="cls-1" points="1746.81 604.56 1751.79 584.44 1698.89 584.55 1693.95 604.5 1746.81 604.56"/><polygon class="cls-1" points="1688.99 624.51 1684.28 643.52 1737.16 643.52 1741.88 624.44 1688.99 624.51"/><text class="cls-2" transform="translate(640.72 253.02)">Oops!</text><text class="cls-3" transform="translate(643.97 345.5)">The<tspan class="cls-4" x="77.56" y="0">r</tspan><tspan x="93.07" y="0">e</tspan><tspan class="cls-5" x="118.31" y="0">’</tspan><tspan x="124.66" y="0">s nothing right now</tspan></text></g></g></g></svg>