<svg xmlns="http://www.w3.org/2000/svg" viewBox="0 0 47.59 48.42"><defs><style>.cls-1{fill:none;stroke:#00b1ff;stroke-miterlimit:10;stroke-width:3px;}</style></defs><title>tencent</title><g id="图层_2" data-name="图层 2"><g id="About"><g id="Links"><g id="Lists"><g id="QQ"><path class="cls-1" d="M46.09,31.88v1.71c0,.16,0,.32-.07.47A4.35,4.35,0,0,1,45,36.6a1,1,0,0,1-1.1.26,2.28,2.28,0,0,1-.82-.75,10.92,10.92,0,0,1-1.23-2c0-.06,0-.15-.13-.15s-.1.08-.14.14a3.07,3.07,0,0,0-.29.64,13.59,13.59,0,0,1-1.78,3.5,9,9,0,0,1-1.1,1.28c-.11.1-.1.18,0,.25s.22.13.34.18a12,12,0,0,1,2.85,1.71A2.47,2.47,0,0,1,42.41,43a1.4,1.4,0,0,1-.06.73A2.57,2.57,0,0,1,41.44,45,7,7,0,0,1,39,46.1a16.33,16.33,0,0,1-3.67.52,19.6,19.6,0,0,1-3.06-.14c-.68-.1-1.37-.15-2.05-.28A30,30,0,0,1,26,45a1,1,0,0,0-.37-.08,12.26,12.26,0,0,1-1.71-.1.33.33,0,0,0-.27,0,4.92,4.92,0,0,1-1,.6A11,11,0,0,1,19,46.8l-1.19.12H13.94l-.51-.06c-.8-.08-1.61-.18-2.41-.34a10.85,10.85,0,0,1-2.21-.68,3.84,3.84,0,0,1-1.49-1.06,1.86,1.86,0,0,1-.47-1.33c0-.31,0-.62.08-.93a2.24,2.24,0,0,1,.41-1.07,3,3,0,0,1,1.08-.84,5,5,0,0,1,1.41-.44c.25,0,.5-.05.76-.08.06,0,.15,0,.17-.09s-.06-.1-.11-.13a3.39,3.39,0,0,1-.42-.33A10.74,10.74,0,0,1,7.84,37a11.2,11.2,0,0,1-1.62-3.57c0-.09,0-.21-.15-.21s-.13.11-.17.19A6.06,6.06,0,0,1,4,35.92a3.09,3.09,0,0,1-1.32.62.63.63,0,0,1-.7-.3,2.39,2.39,0,0,1-.36-1.09,11.54,11.54,0,0,1,0-3.52,12.69,12.69,0,0,1,1.52-4.46A16,16,0,0,1,7.71,22a.23.23,0,0,0,.11-.31,3,3,0,0,1-.11-1.41,4.81,4.81,0,0,1,.76-2,.42.42,0,0,0,.1-.26,5.55,5.55,0,0,1,.32-1.56,1.77,1.77,0,0,1,.36-.64.41.41,0,0,0,.11-.31,7.6,7.6,0,0,1,.14-1.78,13.21,13.21,0,0,1,1.27-3.72A18.27,18.27,0,0,1,15.45,4.3,12.67,12.67,0,0,1,20.3,2.05a18.05,18.05,0,0,1,4.75-.55,20.5,20.5,0,0,1,4.06.43,16.42,16.42,0,0,1,4.21,1.46,13.77,13.77,0,0,1,2.12,1.34,10.89,10.89,0,0,1,2.48,2.59,13.47,13.47,0,0,1,1.64,3.15,20.83,20.83,0,0,1,1.17,4.93,2.8,2.8,0,0,0,.44,1.27,6.48,6.48,0,0,1,1,2.28,4.19,4.19,0,0,1-.19,2.48.82.82,0,0,0,.1.9,19.75,19.75,0,0,1,1.6,2.48A31.21,31.21,0,0,1,45.16,28a10.38,10.38,0,0,1,.64,2C45.93,30.66,46,31.27,46.09,31.88Z"/></g></g></g></g></g></svg>