<svg xmlns="http://www.w3.org/2000/svg" viewBox="0 0 177 172"><defs><style>.cls-1{fill:#55a4ff;}.cls-2{fill:#00b1ff;}</style></defs><title>behance</title><g id="图层_2" data-name="图层 2"><g id="About"><g id="Links"><g id="icons"><g id="Behance"><path class="cls-1" d="M170,7V165H7V7H170m7-7H0V172H177V0Z"/><path class="cls-2" d="M72.13,76.7c8.4,2.1,16.06,8.82,16.06,20.06a21,21,0,0,1-6.93,16.16c-5.35,5.15-14.17,7.57-27.4,7.57a129.79,129.79,0,0,1-16-.95V40.48A99.7,99.7,0,0,1,56.69,38.8c24.47,0,28.67,12,28.67,20.05,0,7.67-4.83,14.39-13.23,17.54Zm-14.7-3.78c9.66,0,15.75-5.35,15.75-12.81C73.18,50.45,65.41,48,57.85,48a38,38,0,0,0-7.88.63V72.92ZM50,110.72a44.73,44.73,0,0,0,7.35.42c9.77,0,18.17-4.09,18.17-14.7S66.35,82,57,82H50Z"/><path class="cls-2" d="M142.79,117.44a45.2,45.2,0,0,1-18.37,3.47c-17.43,0-27.51-11.66-27.51-29.3,0-17.22,9.66-31,26-31s22.78,13.54,22.78,27.82a36.58,36.58,0,0,1-.31,5.15H108.67c.31,13,8.4,18,17.53,18a36,36,0,0,0,14.6-2.73Zm-8.61-32.55c.11-6.93-2.73-15.54-12.07-15.54-8.93,0-12.71,8.82-13.34,15.54Z"/></g></g></g></g></g></svg>