<svg xmlns="http://www.w3.org/2000/svg" viewBox="0 0 178.71 173.68"><defs><style>.cls-1{fill:#00b1ff;}</style></defs><title>gayhub</title><g id="图层_2" data-name="图层 2"><g id="About"><g id="Links"><g id="icons"><g id="Github"><path class="cls-1" d="M109.65,149.39c-.27-4.73.41-10.67-.41-16.59-.2-1.44-2-3-.66-4.19.93-.87,2.73-.8,4.15-1.16,9.15-2.28,17.68-5.74,24.89-12.09a37.26,37.26,0,0,0,13-26.65c.76-12.4-1.85-23.91-10.26-33.57-.92-1-.51-1.91-.15-3A28.38,28.38,0,0,0,139.6,31c-.95-2.18-2.14-3.21-4.93-2.9A36.9,36.9,0,0,0,113.1,38.2a3.37,3.37,0,0,1-3.67.9,75.82,75.82,0,0,0-40.38.26A2.76,2.76,0,0,1,66,38.55,36.83,36.83,0,0,0,43,28c-1.77-.14-2.54.76-3.18,2.06a26.39,26.39,0,0,0-.91,21.73c.8,2.14.61,3.31-.82,5-12.22,14.15-13.41,36.8-2.77,52.06,5.45,7.81,13.17,12.6,21.9,15.94A58.81,58.81,0,0,0,68.72,128c2,.34,2.51,1,1.69,3a21.84,21.84,0,0,0-1.2,8,2.47,2.47,0,0,1-2.2,2.7c-8.84,2.33-20.27-.08-25.9-9.48a16.71,16.71,0,0,0-12-7.93c-1.66-.29-3.81-.57-4.54,1.14-.63,1.48,1.3,2.43,2.43,3.24a26.11,26.11,0,0,1,8.63,11.51c3.74,8.81,10.61,13.22,19.77,14.7a32.33,32.33,0,0,0,11.48-.37c1.53-.3,2.32,0,2.27,1.77-.1,3.31,0,6.63,0,9.94-.13,5.71-4.61,9-9.87,6.92-32-12.44-51.7-35.5-57.81-69.32C-3.17,78,3.27,54.52,19.32,34.05,34.18,15.09,53.91,3.91,77.89.82c24.38-3.14,46.57,2.75,66,17.8C163,33.36,174.51,52.78,177.84,76.76a89.08,89.08,0,0,1-57.44,96.12c-6.18,2.3-10.68-.82-10.74-7.51C109.61,160.44,109.65,155.51,109.65,149.39Z"/></g></g></g></g></g></svg>