<svg xmlns="http://www.w3.org/2000/svg" viewBox="0 0 54 54"><defs><style>.cls-1{fill:#00cfff;}</style></defs><title>info</title><g id="图层_2" data-name="图层 2"><g id="Home_Page" data-name="Home Page"><g id="BulletinBoard"><g id="Content"><g id="Content2"><path class="cls-1" d="M27,54a26.71,26.71,0,0,1-7.19-1,27,27,0,0,1-6.45-2.71,27,27,0,0,1-9.69-9.69A27,27,0,0,1,1,34.19,27.41,27.41,0,0,1,1,19.81a27,27,0,0,1,2.71-6.45,27,27,0,0,1,9.69-9.69A27,27,0,0,1,19.81,1,27.41,27.41,0,0,1,34.19,1a27,27,0,0,1,6.45,2.71,27,27,0,0,1,9.69,9.69A27,27,0,0,1,53,19.81a27.41,27.41,0,0,1,0,14.38,27,27,0,0,1-2.71,6.45,27,27,0,0,1-9.69,9.69A27,27,0,0,1,34.19,53,26.71,26.71,0,0,1,27,54ZM27,3.6a22.84,22.84,0,0,0-6.22.84A24.21,24.21,0,0,0,15.2,6.81,23.22,23.22,0,0,0,6.81,15.2a24,24,0,0,0-2.37,5.6,23.3,23.3,0,0,0,0,12.4,24,24,0,0,0,2.37,5.6,23.22,23.22,0,0,0,8.39,8.39,24.21,24.21,0,0,0,5.58,2.37,23.37,23.37,0,0,0,12.42,0,24,24,0,0,0,5.6-2.37,23.22,23.22,0,0,0,8.39-8.39,24.21,24.21,0,0,0,2.37-5.58,23.37,23.37,0,0,0,0-12.42,24,24,0,0,0-2.37-5.6A23.22,23.22,0,0,0,38.8,6.81a24,24,0,0,0-5.6-2.37A22.85,22.85,0,0,0,27,3.6ZM25.2,14.4h3.6V18H25.2Zm0,7.2h3.6v18H25.2Z"/></g></g></g></g></g></svg>