<svg xmlns="http://www.w3.org/2000/svg" viewBox="0 0 67.12 67.05"><defs><style>.cls-1{fill:#00b1ff;}</style></defs><title>save</title><g id="图层_2" data-name="图层 2"><g id="Github_Pages" data-name="Github Pages"><g id="List"><g id="Element3"><path class="cls-1" d="M22.37,49.22h4.48l-4.48,4.47H5.77L0,47.93V4.47A4.36,4.36,0,0,1,.35,2.73,4.52,4.52,0,0,1,2.73.35,4.36,4.36,0,0,1,4.47,0H49.22a4.39,4.39,0,0,1,3.16,1.31,4.65,4.65,0,0,1,1,1.42,4.36,4.36,0,0,1,.34,1.74v17.9l-4.47,4.48V4.47H44.75V26.85H9V4.47H4.47V46l3.19,3.18H9V31.32H40.27V35.8L35.8,40.27V35.8H13.42V49.22H17.9V40.27h4.47Zm-9-26.85H40.27V4.47H13.42Zm46.71,4.48a7.11,7.11,0,0,1,2.74.52,7,7,0,0,1,2.22,1.45A6.78,6.78,0,0,1,66.58,31a6.94,6.94,0,0,1,.54,2.74,7.05,7.05,0,0,1-.53,2.66,6.81,6.81,0,0,1-1.5,2.27L40,63.76,26.85,67.05l3.28-13.18,25.07-25a6.33,6.33,0,0,1,2.27-1.5A7.18,7.18,0,0,1,60.13,26.85Zm1.78,8.7a2.41,2.41,0,0,0,.73-1.78A2.34,2.34,0,0,0,61.93,32a2.53,2.53,0,0,0-1.8-.68,3.05,3.05,0,0,0-1,.16,2,2,0,0,0-.8.51L34.19,56.18,33,60.9l4.72-1.19Z"/></g></g></g></g></svg>